<svg height="24" viewBox="0 0 24 24" width="24" xmlns="http://www.w3.org/2000/svg">
      <path style="stroke-width: 0;" clip-rule="evenodd" d="M11.5 9.5C13.1569 9.5 14.5 8.15685 14.5 6.5C14.5 4.84315 13.1569 3.5 11.5 3.5C9.84315 3.5 8.5 4.84315 8.5 6.5C8.5 8.15685 9.84315 9.5 11.5 9.5ZM16 6.5C16 8.98528 13.9853 11 11.5 11C9.01472 11 7 8.98528 7 6.5C7 4.01472 9.01472 2 11.5 2C13.9853 2 16 4.01472 16 6.5Z" fill="#595650" fill-rule="evenodd"></path>
      <path style="stroke-width: 0;" clip-rule="evenodd" d="M8.09723 15.7485C7.24156 16.6128 6.5 18.1795 6.5 21H5C5 14.8485 8.25 13 11.5 13C14.75 13 18 14.8549 18 21H16.5C16.5 18.1831 15.7587 16.616 14.9024 15.7506C14.0435 14.8824 12.851 14.5 11.5 14.5C10.1478 14.5 8.95564 14.8814 8.09723 15.7485Z" fill="#595650" fill-rule="evenodd"></path>
    </svg>