<svg width="131" height="14" viewBox="0 0 131 14" fill="none" xmlns="http://www.w3.org/2000/svg"> <path d="M1.13342 11V2.61497H3.96664C4.62445 2.61497 5.16216 2.73371 5.57977 2.97117C6.00012 3.20591 6.31128 3.5239 6.51326 3.92513C6.71525 4.32637 6.81624 4.77401 6.81624 5.26805C6.81624 5.76209 6.71525 6.21109 6.51326 6.61506C6.31401 7.01902 6.00558 7.3411 5.58796 7.5813C5.17035 7.81877 4.63537 7.9375 3.98302 7.9375H1.95227V7.03676H3.95026C4.40063 7.03676 4.76229 6.95897 5.03524 6.80339C5.30819 6.64781 5.50608 6.43764 5.6289 6.17288C5.75446 5.90539 5.81724 5.60378 5.81724 5.26805C5.81724 4.93232 5.75446 4.63207 5.6289 4.36731C5.50608 4.10255 5.30682 3.89511 5.03114 3.74499C4.75546 3.59213 4.38971 3.51571 3.93388 3.51571H2.14879V11H1.13342ZM10.8081 11.131C10.2404 11.131 9.74226 10.9959 9.31373 10.7257C8.88793 10.4555 8.55493 10.0774 8.31473 9.59158C8.07727 9.10573 7.95853 8.53799 7.95853 7.88837C7.95853 7.23329 8.07727 6.66146 8.31473 6.17288C8.55493 5.6843 8.88793 5.3049 9.31373 5.03468C9.74226 4.76446 10.2404 4.62934 10.8081 4.62934C11.3759 4.62934 11.8726 4.76446 12.2984 5.03468C12.727 5.3049 13.06 5.6843 13.2974 6.17288C13.5376 6.66146 13.6577 7.23329 13.6577 7.88837C13.6577 8.53799 13.5376 9.10573 13.2974 9.59158C13.06 10.0774 12.727 10.4555 12.2984 10.7257C11.8726 10.9959 11.3759 11.131 10.8081 11.131ZM10.8081 10.263C11.2394 10.263 11.5942 10.1525 11.8726 9.9314C12.151 9.71031 12.3571 9.41962 12.4909 9.05932C12.6246 8.69903 12.6915 8.30871 12.6915 7.88837C12.6915 7.46803 12.6246 7.07634 12.4909 6.71332C12.3571 6.35029 12.151 6.05687 11.8726 5.83305C11.5942 5.60924 11.2394 5.49733 10.8081 5.49733C10.3769 5.49733 10.022 5.60924 9.74363 5.83305C9.46522 6.05687 9.25914 6.35029 9.1254 6.71332C8.99165 7.07634 8.92478 7.46803 8.92478 7.88837C8.92478 8.30871 8.99165 8.69903 9.1254 9.05932C9.25914 9.41962 9.46522 9.71031 9.74363 9.9314C10.022 10.1525 10.3769 10.263 10.8081 10.263ZM16.3436 11L14.4275 4.71123H15.4428L16.8021 9.52607H16.8676L18.2105 4.71123H19.2423L20.5688 9.50969H20.6343L21.9936 4.71123H23.009L21.0929 11H20.143L18.7674 6.16878H18.6691L17.2934 11H16.3436ZM26.7092 11.131C26.1032 11.131 25.5805 10.9973 25.1411 10.7298C24.7044 10.4596 24.3673 10.0829 24.1298 9.59977C23.8951 9.11391 23.7777 8.54891 23.7777 7.90475C23.7777 7.26058 23.8951 6.69285 24.1298 6.20154C24.3673 5.7075 24.6975 5.32264 25.1206 5.04696C25.5464 4.76855 26.0432 4.62934 26.6109 4.62934C26.9385 4.62934 27.2619 4.68393 27.5813 4.79311C27.9006 4.90229 28.1913 5.07971 28.4533 5.32537C28.7154 5.56829 28.9242 5.89037 29.0798 6.29161C29.2353 6.69285 29.3131 7.18689 29.3131 7.77373V8.18315H24.4655V7.34793H28.3305C28.3305 6.99309 28.2595 6.67647 28.1176 6.39806C27.9784 6.11965 27.7791 5.89993 27.5198 5.73889C27.2633 5.57785 26.9603 5.49733 26.6109 5.49733C26.2261 5.49733 25.8931 5.59286 25.6119 5.78392C25.3335 5.97226 25.1192 6.21791 24.9691 6.52089C24.819 6.82386 24.7439 7.14867 24.7439 7.49532V8.05214C24.7439 8.52707 24.8258 8.92967 24.9896 9.25994C25.1561 9.58748 25.3867 9.83723 25.6815 10.0092C25.9763 10.1784 26.3189 10.263 26.7092 10.263C26.963 10.263 27.1923 10.2276 27.397 10.1566C27.6045 10.0829 27.7832 9.97371 27.9334 9.82904C28.0835 9.68165 28.1995 9.49877 28.2814 9.28041L29.2149 9.54245C29.1166 9.85907 28.9515 10.1375 28.7195 10.3777C28.4875 10.6151 28.2009 10.8007 27.8597 10.9345C27.5185 11.0655 27.135 11.131 26.7092 11.131ZM30.783 11V4.71123H31.7165V5.6611H31.782C31.8966 5.34993 32.104 5.09745 32.4043 4.90366C32.7045 4.70986 33.043 4.61297 33.4197 4.61297C33.4906 4.61297 33.5793 4.61433 33.6858 4.61706C33.7922 4.61979 33.8728 4.62389 33.9273 4.62934V5.61196C33.8946 5.60378 33.8195 5.59149 33.7022 5.57512C33.5875 5.55601 33.4661 5.54646 33.3378 5.54646C33.0321 5.54646 32.7591 5.6106 32.5189 5.73889C32.2815 5.86444 32.0931 6.03913 31.9539 6.26295C31.8174 6.48404 31.7492 6.73652 31.7492 7.02039V11H30.783ZM37.518 11.131C36.9121 11.131 36.3894 10.9973 35.9499 10.7298C35.5132 10.4596 35.1761 10.0829 34.9386 9.59977C34.7039 9.11391 34.5865 8.54891 34.5865 7.90475C34.5865 7.26058 34.7039 6.69285 34.9386 6.20154C35.1761 5.7075 35.5064 5.32264 35.9294 5.04696C36.3552 4.76855 36.852 4.62934 37.4197 4.62934C37.7473 4.62934 38.0707 4.68393 38.3901 4.79311C38.7094 4.90229 39.0001 5.07971 39.2622 5.32537C39.5242 5.56829 39.733 5.89037 39.8886 6.29161C40.0442 6.69285 40.1219 7.18689 40.1219 7.77373V8.18315H35.2744V7.34793H39.1393C39.1393 6.99309 39.0684 6.67647 38.9264 6.39806C38.7872 6.11965 38.588 5.89993 38.3287 5.73889C38.0721 5.57785 37.7691 5.49733 37.4197 5.49733C37.0349 5.49733 36.7019 5.59286 36.4207 5.78392C36.1423 5.97226 35.9281 6.21791 35.7779 6.52089C35.6278 6.82386 35.5528 7.14867 35.5528 7.49532V8.05214C35.5528 8.52707 35.6346 8.92967 35.7984 9.25994C35.9649 9.58748 36.1956 9.83723 36.4903 10.0092C36.7851 10.1784 37.1277 10.263 37.518 10.263C37.7718 10.263 38.0011 10.2276 38.2058 10.1566C38.4133 10.0829 38.5921 9.97371 38.7422 9.82904C38.8923 9.68165 39.0083 9.49877 39.0902 9.28041L40.0237 9.54245C39.9254 9.85907 39.7603 10.1375 39.5283 10.3777C39.2963 10.6151 39.0097 10.8007 38.6685 10.9345C38.3273 11.0655 37.9438 11.131 37.518 11.131ZM43.9665 11.131C43.4424 11.131 42.9797 10.9986 42.5785 10.7339C42.1773 10.4664 41.8634 10.0897 41.6368 9.60386C41.4103 9.11528 41.297 8.53799 41.297 7.87199C41.297 7.21145 41.4103 6.63826 41.6368 6.15241C41.8634 5.66655 42.1786 5.29125 42.5826 5.02649C42.9866 4.76173 43.4533 4.62934 43.9828 4.62934C44.3923 4.62934 44.7157 4.69758 44.9532 4.83406C45.1934 4.9678 45.3762 5.12065 45.5018 5.29261C45.6301 5.46184 45.7297 5.60105 45.8007 5.71023H45.8826V2.61497H46.8488V11H45.9153V10.0338H45.8007C45.7297 10.1484 45.6287 10.2931 45.4977 10.4677C45.3667 10.6397 45.1797 10.7939 44.9368 10.9304C44.6939 11.0641 44.3704 11.131 43.9665 11.131ZM44.0975 10.263C44.4851 10.263 44.8126 10.162 45.0801 9.96006C45.3476 9.75535 45.5509 9.47284 45.6901 9.11255C45.8293 8.74953 45.8989 8.33055 45.8989 7.85561C45.8989 7.38614 45.8307 6.97535 45.6942 6.62324C45.5578 6.26841 45.3558 5.99273 45.0883 5.79621C44.8208 5.59695 44.4905 5.49733 44.0975 5.49733C43.688 5.49733 43.3469 5.60241 43.0739 5.81258C42.8037 6.02003 42.6003 6.30253 42.4639 6.66009C42.3301 7.01493 42.2632 7.41344 42.2632 7.85561C42.2632 8.30325 42.3315 8.70995 42.468 9.0757C42.6072 9.43873 42.8119 9.72805 43.0821 9.94368C43.355 10.1566 43.6935 10.263 44.0975 10.263ZM52.1263 11V2.61497H53.0925V5.71023H53.1744C53.2454 5.60105 53.3437 5.46184 53.4692 5.29261C53.5975 5.12065 53.7804 4.9678 54.0178 4.83406C54.258 4.69758 54.5828 4.62934 54.9923 4.62934C55.5218 4.62934 55.9885 4.76173 56.3925 5.02649C56.7965 5.29125 57.1117 5.66655 57.3383 6.15241C57.5648 6.63826 57.6781 7.21145 57.6781 7.87199C57.6781 8.53799 57.5648 9.11528 57.3383 9.60386C57.1117 10.0897 56.7978 10.4664 56.3966 10.7339C55.9954 10.9986 55.5327 11.131 55.0086 11.131C54.6047 11.131 54.2812 11.0641 54.0383 10.9304C53.7954 10.7939 53.6084 10.6397 53.4774 10.4677C53.3464 10.2931 53.2454 10.1484 53.1744 10.0338H53.0598V11H52.1263ZM53.0762 7.85561C53.0762 8.33055 53.1458 8.74953 53.285 9.11255C53.4242 9.47284 53.6275 9.75535 53.895 9.96006C54.1625 10.162 54.49 10.263 54.8776 10.263C55.2816 10.263 55.6187 10.1566 55.8889 9.94368C56.1619 9.72805 56.3666 9.43873 56.503 9.0757C56.6423 8.70995 56.7119 8.30325 56.7119 7.85561C56.7119 7.41344 56.6436 7.01493 56.5071 6.66009C56.3734 6.30253 56.1701 6.02003 55.8971 5.81258C55.6269 5.60241 55.2871 5.49733 54.8776 5.49733C54.4846 5.49733 54.1543 5.59695 53.8868 5.79621C53.6193 5.99273 53.4173 6.26841 53.2809 6.62324C53.1444 6.97535 53.0762 7.38614 53.0762 7.85561ZM59.5533 13.3583C59.3895 13.3583 59.2435 13.3446 59.1152 13.3173C58.9869 13.2928 58.8982 13.2682 58.8491 13.2436L59.0947 12.392C59.3295 12.4521 59.5369 12.4739 59.717 12.4576C59.8972 12.4412 60.0569 12.3607 60.1961 12.216C60.338 12.0741 60.4677 11.8434 60.585 11.5241L60.7652 11.0328L58.4396 4.71123H59.4878L61.2237 9.72259H61.2892L63.0252 4.71123H64.0733L61.4039 11.9171C61.2838 12.2419 61.135 12.5108 60.9576 12.7237C60.7802 12.9393 60.5741 13.099 60.3394 13.2027C60.1074 13.3064 59.8453 13.3583 59.5533 13.3583Z" fill="#828282"></path> <path d="M73.4177 10.0499C74.3198 10.0499 75.0376 9.71023 75.5088 9.22645C75.5964 9.13582 75.711 9.07745 75.8347 9.06051C75.9583 9.04357 76.0839 9.06903 76.1918 9.13287L77.0298 9.63256C77.0795 9.66199 77.1224 9.7021 77.1555 9.75012C77.1886 9.79815 77.2111 9.85293 77.2214 9.91069C77.2316 9.96845 77.2295 10.0278 77.2151 10.0846C77.2007 10.1415 77.1744 10.1944 77.1379 10.2399C76.2835 11.2851 75.0129 11.9027 73.3994 11.9027C70.374 11.9027 68.4122 9.7879 68.4122 6.98064C68.4122 4.21082 70.374 2.05859 73.2527 2.05859C75.9846 2.05859 77.6715 4.3044 77.6715 6.99936C77.6715 7.12569 77.6642 7.25575 77.6532 7.38489C77.6411 7.51006 77.5838 7.62616 77.4924 7.71057C77.4011 7.79499 77.2822 7.84167 77.159 7.84153H70.4841C70.7958 9.30131 71.9509 10.0499 73.4177 10.0499ZM75.8563 6.19461C75.5813 4.58512 74.4261 3.89267 73.2344 3.89267C71.7492 3.89267 70.7408 4.79099 70.4657 6.19461H75.8563Z" fill="#828282"></path> <path d="M82.7189 2.05859H85.7243C87.1753 2.05859 88.68 3.08835 88.68 5.63228V11.4812C88.6801 11.5365 88.6696 11.5913 88.649 11.6424C88.6285 11.6936 88.5983 11.74 88.5601 11.7792C88.522 11.8183 88.4768 11.8494 88.4269 11.8706C88.3771 11.8918 88.3237 11.9027 88.2697 11.9027H86.9863C86.8772 11.9027 86.7726 11.8583 86.6955 11.7793C86.6183 11.7002 86.575 11.593 86.575 11.4812V10.5054V8.71855V5.99084C86.575 4.47268 85.8685 3.86541 84.2508 3.86541C82.6965 3.86541 81.9168 4.54859 81.9168 6.08773V11.4812C81.917 11.5365 81.9065 11.5913 81.8859 11.6424C81.8653 11.6936 81.8351 11.74 81.797 11.7792C81.7589 11.8183 81.7136 11.8494 81.6638 11.8706C81.614 11.8918 81.5605 11.9027 81.5066 11.9027H80.2231C80.1141 11.9027 80.0095 11.8583 79.9323 11.7793C79.8552 11.7002 79.8119 11.593 79.8119 11.4812V5.6113C79.8119 3.22518 81.1947 2.05859 82.7189 2.05859Z" fill="#828282"></path> <path d="M98.3748 10.4947V11.3719C98.3748 11.4468 98.3604 11.5208 98.3323 11.5899C98.3042 11.659 98.263 11.7218 98.2111 11.7746C98.1592 11.8275 98.0976 11.8694 98.0298 11.8979C97.962 11.9265 97.8894 11.9411 97.8161 11.9409H91.379C91.231 11.9409 91.0892 11.881 90.9845 11.7743C90.8799 11.6676 90.8212 11.5229 90.8212 11.3719V10.6973C90.8214 10.5782 90.8579 10.4622 90.9258 10.3653L95.3534 4.07379H91.5765C91.4286 4.07379 91.2867 4.01384 91.1821 3.90713C91.0775 3.80043 91.0187 3.6557 91.0187 3.50479V2.62759C91.0187 2.47668 91.0775 2.33196 91.1821 2.22525C91.2867 2.11854 91.4286 2.05859 91.5765 2.05859H97.6262C97.6996 2.05846 97.7722 2.07309 97.84 2.10162C97.9078 2.13016 97.9694 2.17205 98.0213 2.2249C98.0732 2.27775 98.1144 2.34052 98.1425 2.40962C98.1706 2.47871 98.185 2.55279 98.185 2.62759V3.29833C98.185 3.41709 98.1484 3.53285 98.0804 3.62926L93.6683 9.9218H97.8161C97.8897 9.92167 97.9627 9.93642 98.0307 9.9652C98.0988 9.99399 98.1605 10.0362 98.2125 10.0895C98.2644 10.1428 98.3055 10.206 98.3334 10.2756C98.3613 10.3451 98.3753 10.4196 98.3748 10.4947V10.4947Z" fill="#828282"></path> <path d="M100.516 8.32202V2.47961C100.516 2.42437 100.526 2.36965 100.547 2.31857C100.568 2.2675 100.598 2.22108 100.637 2.18197C100.676 2.14286 100.721 2.11183 100.772 2.09066C100.822 2.06949 100.876 2.05859 100.931 2.05859H102.23C102.341 2.05859 102.446 2.10295 102.525 2.18191C102.603 2.26086 102.646 2.36795 102.646 2.47961V7.96685C102.646 9.48332 103.693 10.0899 105.034 10.0899C106.435 10.0899 107.362 9.48461 107.362 7.96685V2.47961C107.362 2.42437 107.372 2.36965 107.393 2.31857C107.414 2.2675 107.444 2.22108 107.483 2.18197C107.522 2.14286 107.567 2.11183 107.618 2.09066C107.668 2.06949 107.722 2.05859 107.777 2.05859H109.076C109.187 2.05859 109.292 2.10295 109.371 2.18191C109.449 2.26086 109.492 2.36795 109.492 2.47961L109.514 8.32202C109.514 10.7055 108.237 11.9027 106.695 11.9027H103.358C101.889 11.8987 100.516 10.8631 100.516 8.32202Z" fill="#828282"></path> <path d="M119.209 10.4908V11.367C119.209 11.5182 119.15 11.6632 119.045 11.7701C118.94 11.8769 118.798 11.937 118.65 11.937H112.213C112.139 11.937 112.067 11.9223 111.999 11.8936C111.931 11.8649 111.87 11.8229 111.818 11.77C111.766 11.7171 111.725 11.6542 111.697 11.5851C111.669 11.5159 111.655 11.4418 111.655 11.367V10.6973C111.655 10.5782 111.692 10.4622 111.759 10.3653L116.187 4.07379H112.41C112.262 4.07379 112.12 4.01384 112.016 3.90713C111.911 3.80043 111.852 3.6557 111.852 3.50479V2.62759C111.852 2.47668 111.911 2.33196 112.016 2.22525C112.12 2.11854 112.262 2.05859 112.41 2.05859H118.46C118.533 2.05846 118.606 2.07309 118.674 2.10162C118.742 2.13016 118.803 2.17205 118.855 2.2249C118.907 2.27775 118.948 2.34052 118.976 2.40962C119.004 2.47872 119.019 2.55279 119.019 2.62759V3.3013C119.019 3.42003 118.982 3.53572 118.914 3.63222L114.502 9.91983H118.65C118.723 9.9197 118.796 9.93439 118.864 9.96305C118.932 9.99171 118.994 10.0338 119.046 10.0868C119.097 10.1399 119.139 10.2029 119.167 10.2722C119.195 10.3415 119.209 10.4158 119.209 10.4908V10.4908Z" fill="#828282"></path> <path d="M121.349 6.98054C121.349 4.19206 123.506 2.05859 126.175 2.05859C128.861 2.05859 131 4.19206 131 6.98054C131 9.75031 128.861 11.9025 126.175 11.9025C125.541 11.9083 124.912 11.7851 124.326 11.5401C123.739 11.295 123.205 10.933 122.756 10.4751C122.308 10.0171 121.952 9.47232 121.71 8.87242C121.469 8.27251 121.346 7.62943 121.349 6.98054V6.98054ZM129.026 6.98054C129.026 5.27751 127.783 4.02363 126.175 4.02363C124.566 4.02363 123.323 5.27751 123.323 6.98054C123.323 8.68358 124.566 9.93746 126.175 9.93746C127.783 9.93746 129.026 8.68358 129.026 6.98054Z" fill="#828282"></path> </svg>