<svg width="60" height="16" viewBox="0 0 60 16" xmlns="http://www.w3.org/2000/svg"> <path style="stroke-width: 0;" fill-rule="evenodd" clip-rule="evenodd" d="m14.648 0-5.1 7.93L14.755 16h-4.55L6.37 9.961H3.92V16H0V0h3.921v6.04h2.296L10.206 0h4.442zm20.846 16V0h3.922v16h-3.922zm20.07-7.999a4.386 4.386 0 0 1-4.381 4.38 4.385 4.385 0 0 1-4.38-4.38 4.386 4.386 0 0 1 4.38-4.381A4.386 4.386 0 0 1 55.563 8zm-4.381-8c-4.413 0-8.002 3.59-8.002 8 0 4.411 3.59 7.999 8.002 7.999 4.412 0 8.002-3.588 8.002-7.999 0-4.412-3.59-8-8.002-8zm-31.837 8a4.385 4.385 0 0 0 4.38 4.38 4.386 4.386 0 0 0 4.381-4.38 4.387 4.387 0 0 0-4.381-4.381A4.386 4.386 0 0 0 19.346 8zm-3.621 0c0-4.41 3.589-8 8.001-8 4.412 0 8.002 3.588 8.002 8 0 4.411-3.59 7.999-8.002 7.999-4.412 0-8.001-3.588-8.001-7.999z"></path> </svg>