<svg height="36" viewBox="0 0 127 36" width="127" xmlns="http://www.w3.org/2000/svg" xmlns:xlink="http://www.w3.org/1999/xlink"><mask id="a" fill="#fff"><path d="m.48934198 35.2173913h34.62772592v-34.56133043h-34.62772592z" fill="#fff" fill-rule="evenodd"/></mask><mask id="b" fill="#fff"><path d="m.18712901 35.2173913h34.62788269v-34.56133043h-34.62788269z" fill="#fff" fill-rule="evenodd"/></mask><g fill="#221f20" fill-rule="evenodd"><path d="m21.3635167 1.34506957-8.350642 12.62113043h-4.80483334v-12.62113043h-8.20796296v33.43617393h8.20796296v-12.6195652h5.12311724l8.0315741 12.6195652h9.5226482l-10.9000494-16.866 10.6781913-16.57017393z"/><path d="m75.7939136 34.7812435h8.2087469v-33.43617393h-8.2087469z"/><path d="m17.8013235.65606087c-9.54616671 0-17.31198152 7.75252174-17.31198152 17.28156523 0 9.5282609 7.76581481 17.28 17.31198152 17.28 9.5477345 0 17.3159012-7.7517391 17.3159012-17.28 0-9.52904349-7.7681667-17.28156523-17.3159012-17.28156523m9.4803148 17.28156523c0 5.2176522-4.2521482 9.4625217-9.4803148 9.4625217-5.2258149 0-9.47717906-4.2448695-9.47717906-9.4625217 0-5.2184348 4.25136416-9.46486958 9.47717906-9.46486958 5.2281666 0 9.4803148 4.24643478 9.4803148 9.46486958" mask="url(#a)" transform="translate(91.722222 .126548)"/><path d="m17.4991105.65606087c-9.54616667 0-17.31198149 7.75252174-17.31198149 17.28156523 0 9.5282609 7.76581482 17.28 17.31198149 17.28 9.5477346 0 17.3159012-7.7517391 17.3159012-17.28 0-9.52904349-7.7681666-17.28156523-17.3159012-17.28156523m0 26.74408693c-5.2258148 0-9.47717902-4.2448695-9.47717902-9.4625217 0-5.2184348 4.25136422-9.46486958 9.47717902-9.46486958 5.2281667 0 9.4803148 4.24643478 9.4803148 9.46486958 0 5.2176522-4.2521481 9.4625217-9.4803148 9.4625217" mask="url(#b)" transform="translate(32.925926 .126548)"/></g></svg>
