<svg width="14" height="11" viewBox="0 0 14 11" fill="none" xmlns="http://www.w3.org/2000/svg">
      <path d="M4.30792 4.34619C4.71844 4.3463 5.07809 4.56127 5.28253 4.88428H13.1536V5.88428H5.39386C5.23542 6.3322 4.81009 6.65367 4.30792 6.65381C3.80558 6.65381 3.37945 6.33235 3.22101 5.88428H0.846008V4.88428H3.33331C3.53784 4.56135 3.8974 4.34619 4.30792 4.34619Z" fill="black"></path>
      <path d="M8.15375 0.5C8.56434 0.5 8.92385 0.715075 9.12836 1.03809H13.1537V2.03809H9.24066C9.08222 2.48617 8.65609 2.80762 8.15375 2.80762C7.65142 2.80757 7.22525 2.48617 7.06683 2.03809H0.84613V1.03809H7.17914C7.38362 0.71505 7.74316 0.500035 8.15375 0.5Z" fill="black"></path>
      <path d="M10.4612 8.19238C10.8718 8.19238 11.2313 8.40753 11.4359 8.73047H13.1536V9.73047H11.5482C11.3897 10.1785 10.9636 10.5 10.4612 10.5C9.95907 10.4999 9.53375 10.1784 9.37531 9.73047H0.846008V8.73047H9.48663C9.69108 8.40746 10.0507 8.19248 10.4612 8.19238Z" fill="black"></path>
    </svg>